<svg width="24" height="24" viewBox="0 0 24 24" fill="none" xmlns="http://www.w3.org/2000/svg">
<path fill-rule="evenodd" clip-rule="evenodd" d="M22 11.9342C22 11.956 22 11.978 22 12V16.0658C22 16.9523 22.0001 17.7161 21.9179 18.3278C21.8297 18.9833 21.631 19.6117 21.1213 20.1213C20.6117 20.631 19.9833 20.8297 19.3278 20.9179C18.7161 21.0001 17.9523 21.0001 17.0658 21H6.93417C6.04769 21.0001 5.28387 21.0001 4.67221 20.9179C4.0167 20.8297 3.38835 20.631 2.87868 20.1213C2.36902 19.6117 2.17028 18.9833 2.08214 18.3278C1.99991 17.7161 1.99995 16.9523 2 16.0658V11.9342C1.99995 11.0477 1.99991 10.2839 2.08214 9.67221C2.17028 9.0167 2.36902 8.38835 2.87868 7.87868C3.38835 7.36902 4.0167 7.17028 4.67221 7.08215C5.28387 6.99991 6.04769 6.99995 6.93418 7H17C17.022 7 17.044 7 17.0658 7C17.9523 6.99995 18.7161 6.99991 19.3278 7.08215C19.9833 7.17028 20.6117 7.36902 21.1213 7.87868C21.631 8.38835 21.8297 9.0167 21.9179 9.67221C22.0001 10.2839 22 11.0477 22 11.9342Z" fill="#0F1419" fill-opacity="0.55"/>
<path d="M19 6.04361V5.71429C19 4.21523 17.7848 3 16.2857 3H7.71429C6.21523 3 5 4.21523 5 5.71429V6.0436C5.57491 5.99987 6.22076 5.99994 6.88123 6.00001H17.1187C17.7792 5.99994 18.4251 5.99987 19 6.04361Z" fill="#0F1419" fill-opacity="0.55"/>
</svg>
