<svg width="20" height="20" viewBox="0 0 20 20" fill="none" xmlns="http://www.w3.org/2000/svg">
<path d="M6.27977 0.500521C6.90977 0.519681 7.51977 0.629681 8.11077 0.830681H8.16977C8.20977 0.849681 8.23977 0.870681 8.25977 0.889681C8.48077 0.960681 8.68977 1.04068 8.88977 1.15068L9.26977 1.32068C9.41977 1.40068 9.59977 1.54968 9.69977 1.61068C9.79977 1.66968 9.90977 1.73068 9.99977 1.79968C11.1108 0.95068 12.4598 0.490681 13.8498 0.500521C14.4808 0.500521 15.1108 0.589681 15.7098 0.790681C19.4008 1.99068 20.7308 6.04068 19.6198 9.58068C18.9898 11.3897 17.9598 13.0407 16.6108 14.3897C14.6798 16.2597 12.5608 17.9197 10.2798 19.3497L10.0298 19.5007L9.76977 19.3397C7.48077 17.9197 5.34977 16.2597 3.40077 14.3797C2.06077 13.0307 1.02977 11.3897 0.389772 9.58068C-0.740228 6.04068 0.589773 1.99068 4.32077 0.769681C4.61077 0.669681 4.90977 0.599681 5.20977 0.560681H5.32977C5.61077 0.519681 5.88977 0.500521 6.16977 0.500521H6.27977ZM15.1898 3.66068C14.7798 3.51968 14.3298 3.74068 14.1798 4.16068C14.0398 4.58068 14.2598 5.04068 14.6798 5.18968C15.3208 5.42968 15.7498 6.06068 15.7498 6.75968V6.79068C15.7308 7.01968 15.7998 7.24068 15.9398 7.41068C16.0798 7.58068 16.2898 7.67968 16.5098 7.70068C16.9198 7.68968 17.2698 7.36068 17.2998 6.93968V6.82068C17.3298 5.41968 16.4808 4.15068 15.1898 3.66068Z" fill="#BD1231"/>
</svg>
