<svg width="20" height="20" viewBox="0 0 20 20" fill="none" xmlns="http://www.w3.org/2000/svg">
  <path fill-rule="evenodd" clip-rule="evenodd" d="M5 8C5 7.44772 5.44772 7 6 7H6.01C6.56228 7 7.01 7.44772 7.01 8C7.01 8.5523 6.56228 9 6.01 9H6C5.44772 9 5 8.5523 5 8ZM9 8C9 7.44772 9.4477 7 10 7H10.01C10.5623 7 11.01 7.44772 11.01 8C11.01 8.5523 10.5623 9 10.01 9H10C9.4477 9 9 8.5523 9 8ZM14 7C13.4477 7 13 7.44772 13 8C13 8.5523 13.4477 9 14 9H14.01C14.5623 9 15.01 8.5523 15.01 8C15.01 7.44772 14.5623 7 14.01 7H14ZM4.93417 2.44716e-06C4.95604 2.44716e-06 4.97799 2.44716e-06 5 2.44716e-06H15.0658C15.9523 -4.75528e-05 16.7161 -8.75741e-05 17.3278 0.0821524C17.9833 0.170282 18.6117 0.369022 19.1213 0.878682C19.631 1.38835 19.8297 2.0167 19.9179 2.67221C20.0001 3.28388 20.0001 4.0477 20 4.9342V11.0658C20.0001 11.9523 20.0001 12.7161 19.9179 13.3278C19.8297 13.9833 19.631 14.6117 19.1213 15.1213C18.6117 15.631 17.9833 15.8297 17.3278 15.9179C16.7161 16.0001 15.9523 16.0001 15.0658 16H12C11.8864 16 11.7757 16.036 11.6838 16.1028L7.27568 19.3087C6.32858 19.9975 5 19.321 5 18.1499V16C4.22604 16 3.44118 16.0213 2.67221 15.9179C2.0167 15.8297 1.38835 15.631 0.878682 15.1213C0.369022 14.6117 0.170282 13.9833 0.0821524 13.3278C-8.75741e-05 12.7161 -4.75528e-05 11.9523 2.44716e-06 11.0658V5C2.44716e-06 4.97799 2.44716e-06 4.95604 2.44716e-06 4.93417C-4.75528e-05 4.04769 -8.75741e-05 3.28387 0.0821524 2.67221C0.170282 2.0167 0.369022 1.38835 0.878682 0.878682C1.38835 0.369022 2.0167 0.170282 2.67221 0.0821524C3.28387 -8.75741e-05 4.04769 -4.75528e-05 4.93417 2.44716e-06Z" fill="#0F1419" fill-opacity="0.55" />
</svg>