<svg width="20" height="20" viewBox="0 0 20 20" fill="none" xmlns="http://www.w3.org/2000/svg">
<path fill-rule="evenodd" clip-rule="evenodd" d="M6.23129 0.240478C7.24338 -0.213052 8.1202 0.811448 7.80357 1.70098C6.72924 4.71928 7.38932 8.1474 9.6193 10.3765C11.8606 12.617 15.3114 13.2755 18.3395 12.1819C19.2206 11.8637 20.2173 12.7319 19.7817 13.7199C19.7688 13.7491 19.7558 13.7782 19.7427 13.8074C18.9674 15.5266 17.7272 17.1434 16.1227 18.2274C14.4125 19.3828 12.3957 20.0001 10.3316 20.0001H10.3306C7.93035 19.9975 5.6057 19.1603 3.75517 17.6321C1.90463 16.1039 0.643452 13.9797 0.187932 11.6237C-0.267588 9.2677 0.110942 6.82672 1.2586 4.71917C2.34658 2.72121 4.17608 1.16858 6.20153 0.253858L6.23129 0.240478Z" fill="#0F1419" fill-opacity="0.54"/>
</svg>
